Coordinates
version=1
nRows=11
nColumns=36
inDegrees=yes

Units are S.I. units (second, meters, Newtons, ...)
If the header above contains a line with 'inDegrees', this indicates whether rotational values are in degrees (yes) or radians (no).

endheader
time	pelvis_tilt	pelvis_list	pelvis_rotation	pelvis_tx	pelvis_ty	pelvis_tz	hip_flexion_r	hip_adduction_r	hip_rotation_r	knee_angle_r	knee_angle_r_beta	ankle_angle_r	subtalar_angle_r	mtp_angle_r	hip_flexion_l	hip_adduction_l	hip_rotation_l	knee_angle_l	knee_angle_l_beta	ankle_angle_l	subtalar_angle_l	mtp_angle_l	lumbar_extension	lumbar_bending	lumbar_rotation	arm_flex_r	arm_add_r	arm_rot_r	elbow_flex_r	pro_sup_r	arm_flex_l	arm_add_l	arm_rot_l	elbow_flex_l	pro_sup_l
      0.86000000	    -13.42575472	      0.63330037	      1.28935089	     -0.80814937	      1.17850606	     -0.58533146	     16.34953151	     -2.12567553	     -4.53904383	     53.89589278	      0.94066078	     20.25851263	     -7.49639476	     -5.43482293	     58.13263053	     -4.70848192	     -4.95271068	     84.62194753	      1.47693160	     -5.93461297	    -16.14033754	     -5.43482293	    -16.42208008	     -0.09738829	      4.03930430	     44.00778604	     -8.86626380	     -6.64866091	     86.97807222	    105.49947784	     11.05420432	    -12.83344215	      6.45963324	     63.87597496	    105.87158927
      0.87000000	    -12.30469377	      1.03420081	      1.50872323	     -0.79441726	      1.18595471	     -0.58629683	     15.87153692	     -2.89983698	     -4.80122407	     55.70953052	      0.97231473	     15.29540081	     -8.23445870	     -5.49778910	     56.67945121	     -4.53944441	     -5.80416370	     81.49177189	      1.42229973	     -6.28420573	    -15.58516479	     -5.49778910	    -17.52811003	     -0.68461226	      3.72602320	     43.58771974	     -8.60906157	     -7.15997283	     88.94649758	    105.71273904	     10.30416244	    -12.90119786	      5.67838694	     64.37444938	    106.13586096
      0.88000000	    -11.47456505	      1.08132425	      1.77776225	     -0.78145471	      1.19235941	     -0.58754442	     16.21120708	     -3.32702443	     -5.11660792	     58.13224191	      1.01459902	     10.08125497	     -9.69894836	     -5.56397305	     55.59274063	     -4.48849451	     -6.27679901	     78.19879828	      1.36482650	     -6.88451799	    -15.28477073	     -5.56397305	    -18.44531188	     -0.82045692	      3.28664613	     43.14087121	     -8.32965978	     -7.39143356	     90.64985283	    105.82937569	      9.51795515	    -12.85949443	      4.93379210	     64.84769561	    106.34730841
      0.89000000	    -10.78081947	      1.07916285	      2.01830358	     -0.76884237	      1.19802313	     -0.58893052	     16.95144696	     -3.71423955	     -5.34857938	     60.90121318	      1.06292669	      6.33999903	    -11.29085609	     -5.64252788	     54.51943429	     -4.43970193	     -6.70986505	     74.61569073	      1.30228948	     -7.71704716	    -15.09239490	     -5.64252788	    -19.36388826	     -0.86089369	      2.76650508	     42.64461880	     -8.03274394	     -7.42480379	     92.16463904	    105.85422012	      8.81289043	    -12.83377767	      4.39255552	     65.31218953	    106.58915969
      0.90000000	    -10.11075276	      1.16299542	      2.12010732	     -0.75635758	      1.20305820	     -0.59024810	     17.82116445	     -4.14097351	     -5.31241804	     63.78127310	      1.11319322	      5.57463298	    -11.86995683	     -5.66734500	     53.25619922	     -4.37224485	     -7.18285134	     70.72948613	      1.23446241	     -8.50262322	    -14.33159011	     -5.66734500	    -20.36113445	     -0.97959536	      2.32789367	     42.00194919	     -7.87731267	     -7.28836673	     93.57712470	    105.90237988	      8.29350462	    -12.84594674	      3.97138216	     65.55575939	    106.70225070
      0.91000000	     -9.53255660	      1.15634018	      2.08492085	     -0.74421538	      1.20716995	     -0.59128569	     18.88135072	     -4.30497675	     -5.04828424	     66.44241743	      1.15963895	      6.18987151	    -12.62978240	     -5.69136569	     51.97558841	     -4.43274744	     -7.55312730	     66.62491345	      1.16282410	     -9.64220106	    -13.54890491	     -5.69136569	    -21.37698844	     -1.06235478	      2.03425323	     41.25215410	     -7.77780400	     -7.18775918	     94.89471897	    105.90937935	      7.84350216	    -12.76367095	      3.50994718	     65.85702538	    106.85019537
      0.92000000	     -9.07408826	      1.04663292	      1.95036774	     -0.73250613	      1.21014181	     -0.59212350	     20.23944539	     -4.26405043	     -4.65512445	     68.75702804	      1.20003652	      7.00927546	    -12.73482416	     -5.72041379	     50.72539436	     -4.58944805	     -7.78864765	     62.35852473	      1.08836157	    -11.09586826	    -12.84174898	     -5.72041379	    -22.31983112	     -1.04692610	      1.86538430	     40.45986439	     -7.69272692	     -7.12867788	     96.01715928	    105.84704088	      7.52061133	    -12.56839989	      3.23272940	     66.13896090	    107.06957897
      0.93000000	     -8.71338022	      0.95662285	      1.74752038	     -0.72097120	      1.21195215	     -0.59285583	     21.81273219	     -4.29637850	     -4.33994916	     70.59531193	      1.23212063	      7.52208198	    -12.36779761	     -5.74430111	     49.45763519	     -4.77329289	     -8.05656693	     57.95050468	      1.01142711	    -12.87976313	    -11.88754751	     -5.74430111	    -23.19280605	     -1.05429717	      1.77782889	     39.57445869	     -7.70582930	     -6.97085935	     96.98012462	    105.78456440	      7.28017397	    -12.40615651	      3.06088115	     66.25883356	    107.29082846
      0.94000000	     -8.48440487	      0.87117844	      1.51392456	     -0.70958228	      1.21260713	     -0.59363573	     23.52993330	     -4.40114283	     -4.05828089	     71.82360228	      1.25355834	      9.00201981	    -10.40315029	     -5.81853040	     48.20185482	     -4.89404809	     -8.32124409	     53.30588533	      0.93036321	    -15.71783885	    -12.13338383	     -5.81853040	    -23.93821259	     -1.12808049	      1.89116828	     38.46540829	     -7.77408932	     -7.24322595	     97.92316167	    105.41205955	      7.25133195	    -12.23729142	      3.13893846	     66.30088765	    108.01850120
      0.95000000	     -8.39424299	      0.67470568	      1.24901977	     -0.69820470	      1.21210863	     -0.59437936	     25.31203945	     -4.39963800	     -3.96108535	     72.22219009	      1.26051501	     10.16334205	     -8.95899857	     -5.88883131	     47.00846929	     -5.11632646	     -8.44150045	     48.57041690	      0.84771369	    -18.34368828	    -11.46735127	     -5.88883131	    -24.54891766	     -1.12361940	      2.02041397	     37.33099842	     -7.94337851	     -7.39566456	     98.61654998	    105.12446627	      7.12506179	    -11.96933282	      2.92536097	     66.48052266	    108.51336927
      0.96000000	     -8.37285837	      0.32391176	      1.02307949	     -0.68690525	      1.21051308	     -0.59521996	     27.02133862	     -4.24280141	     -4.08001780	     71.73026156	      1.25192924	     10.55637759	     -8.30475513	     -5.90828286	     45.87185648	     -5.44345547	     -8.37056545	     43.86588893	      0.76560419	    -20.54874306	    -10.01755171	     -5.90828286	    -25.07195308	     -0.91537225	      2.08529161	     36.28980255	     -8.14262490	     -7.35430716	     98.93868258	    105.06630312	      6.91375940	    -11.62631934	      2.54860115	     66.77344720	    108.61486804
